# xmcd CD database file
#
# Track frame offsets:
#	150
#	13255
#	26267
#	39232
#	50975
#	64737
#	78772
#	92895
#	104302
#	116630
#	131097
#	145422
#	158680
#	172550
#	185680
#	198107
#	211412
#	224662
#	238917
#	253487
#	268360
#	283805
#	296635
#	309432
#
# Disc length: 4315 seconds
#
# Revision: 0
# Processed by: cddbd v1.4PL0 Copyright (c) Steve Scherf et al.
# Submitted via: CDex 1.50
#
DISCID=7210d918
DTITLE=Gertrude "Ma" Rainey - Madame Gertrude "Ma" Rainey 1923-1928
DYEAR=1997
DGENRE=Blues
TTITLE0=Blues Oh Blues
TTITLE1=Oh Papa Blues
TTITLE2=Big Boy Blues
TTITLE3=Damper Down Blues
TTITLE4="Ma" Rainey's Black Bottom
TTITLE5=Hellish Rag
TTITLE6=Ice Bag Papa
TTITLE7=Black Cat Hot Owl Blues
TTITLE8=Prove It On Me Blues
TTITLE9=Daddy Goodbye Blues
TTITLE10=Black Eye Blues
TTITLE11=Don't Fish In My Sea
TTITLE12=Weepin' Woman Blues
TTITLE13=Broken Soul Blues
TTITLE14=Mountain Jack Blues
TTITLE15=Stack O'Lee Blues
TTITLE16=Wringing And Twisting Blues
TTITLE17=Jelly Bean Blues
TTITLE18=See See Rider Blues
TTITLE19=Booze And Blues
TTITLE20="Ma" Rainey's Mystery Record
TTITLE21=Lawd Send Me A man Blues
TTITLE22=Honey Where You Been So Long?
TTITLE23=Walking Blues
EXTD=YEAR: 1997
EXTT0=
EXTT1=
EXTT2=
EXTT3=
EXTT4=
EXTT5=
EXTT6=
EXTT7=
EXTT8=
EXTT9=
EXTT10=
EXTT11=
EXTT12=
EXTT13=
EXTT14=
EXTT15=
EXTT16=
EXTT17=
EXTT18=
EXTT19=
EXTT20=
EXTT21=
EXTT22=
EXTT23=
PLAYORDER=
